#define cursor_width 32
#define cursor_height 32
#define cursor_x_hot 16
#define cursor_y_hot 16
static char cursor_bits[] = {
  0x00, 0x00, 0x00, 0x00, 0x00, 0x00, 0x00, 0x00, 0x00, 0x00, 0x00, 0x00, 
  0x10, 0x00, 0x00, 0x00, 0x30, 0x00, 0x00, 0x00, 0xE0, 0x00, 0x00, 0x00, 
  0xC0, 0x21, 0x00, 0x00, 0x80, 0x4B, 0x00, 0x00, 0x00, 0xCE, 0x01, 0x00, 
  0x00, 0xEC, 0x0F, 0x00, 0x00, 0xFC, 0x03, 0x00, 0x00, 0xF3, 0x03, 0x00, 
  0x00, 0xE3, 0x27, 0x00, 0x00, 0xCF, 0x3F, 0x00, 0x00, 0x9F, 0x7F, 0x00, 
  0x80, 0xB9, 0x6F, 0x00, 0x80, 0x77, 0x47, 0x00, 0x80, 0xDD, 0x7F, 0x00, 
  0x80, 0xF1, 0x7F, 0x00, 0x80, 0xEF, 0x7F, 0x00, 0x00, 0xFF, 0xFF, 0x00, 
  0x00, 0xFE, 0x87, 0x00, 0x00, 0xF8, 0xC3, 0x01, 0x00, 0xF0, 0xFB, 0x03, 
  0x00, 0xE0, 0x1F, 0x02, 0x00, 0xC0, 0x0F, 0x06, 0x00, 0xC0, 0x07, 0x0C, 
  0x00, 0x80, 0x1F, 0x07, 0x00, 0x80, 0xFF, 0x03, 0x00, 0x80, 0xFF, 0x00, 
  0x00, 0x80, 0x1F, 0x00, 0x00, 0x00, 0x00, 0x00, };
